<svg xmlns="http://www.w3.org/2000/svg" viewBox="0 0 240 234">
    <path fill="#330000" d="M42.5 0h155C221 0 240 19 240 42.5v149c0 23.5-19 42.5-42.5 42.5h-155C19 234 0 215 0 191.5v-149C0 19 19 0 42.5 0z"/>
    <path fill="#FF9A00" d="M116.3 140.4H79.1l-7.6 23.5c-.2.7-.8 1.2-1.5 1.2H52.1c-.8 0-1.2-.4-1-1.3l31.1-91.1c.2-.7.5-1.4.7-2.3.3-1.5.5-3.1.5-4.6 0-.5.3-.8.8-.8h25.5c.5 0 .9.2 1 .7l35 98.1c.2.7 0 1.2-.8 1.2H126c-.7 0-1.2-.3-1.4-1l-8.3-23.6zm-31.3-20.7h25.4c-.5-1.6-1-3.3-1.5-4.9l-5.3-16.6-5.3-17.3c-.2-.5-.3-.8-.5-.8s-.3.3-.5.8c-.8 3.1-1.8 6.4-2.9 9.9-1.1 3.5-2.3 7-3.4 10.6-2 6.3-3.9 12.3-5.9 18.3zM169.8 77c-.3.8-.5 1.1-1.3 1.1h-16.8c-.8 0-1.2-.5-1.2-1.5V51.3c0-.8.3-1.3 1-1.3h17.6c.8 0 1.2.3 1.2 1.1l-.5 25.9zm-1 87.1c-.2.8-.5 1.1-1.3 1.1h-16.9c-.8 0-1.2-.5-1.2-1.5V87.3c0-.8.3-1.3 1-1.3h17.7c.8 0 1.2.3 1.2 1.1l-0.5 77z"/>
</svg> 